:SAMPLES-PER-SECOND 24
:FULLY-SPECIFIED
:DEGREES
311
root  -6.03374 37.4227 8.2515 -178.755 51.5178 173.359
RightUpLeg  -10.8897 -25.1477 -21.3721
RightLeg  33.1247 0.707795 0.260881
RightFoot  -13.761 0.345308 20.7112
RightToes  -1.46215e-006 3.27826e-006 1.63871e-007
Spine  9.5313 -10.5664 -10.9526
Spine1  8.64182 -16.2113 15.0557
HEad  -52.03 56.7464 -56.809
LeftShoulder1  1.7534 -4.84117 -14.0947
LeftArm  41.3365 -47.8919 -91.8082
LeftForeArm  55.6305 -74.8219 -125.384
LeftHand  0.0591781 7.2225 5.7519
RightShoulder  1.67236 2.67446 20.7645
RightArm  -19.0092 -17.288 3.64246
RightForeArm  174.24 47.8243 169.088
RightHand  -2.54987 1.38833 -42.0495
LeftUpLeg  -14.0991 41.258 19.6781
LeftLeg  18.1823 -2.44444 -2.59597
LeftFoot  15.5277 3.906 -16.6874
LeftToes  1.24762e-006 1.46925e-008 1.29056e-009
312
root  -6.97414 37.1311 7.42641 -174.731 43.7493 176.85
RightUpLeg  -7.52812 -22.9331 -22.1863
RightLeg  31.0898 2.10981 1.13985
RightFoot  -13.4605 0.359182 24.0758
RightToes  -1.46215e-006 3.27826e-006 1.63871e-007
Spine  7.82447 -9.36562 -11.0519
Spine1  8.31575 -15.856 19.0098
HEad  -41.4114 52.4786 -47.4479
LeftShoulder1  1.75922 -4.74458 -14.4421
LeftArm  41.855 -51.1063 -91.3587
LeftForeArm  56.2816 -75.0783 -124.111
LeftHand  0.0719692 7.3445 6.14178
RightShoulder  1.7511 2.79546 21.5503
RightArm  -20.3558 -15.8017 5.33603
RightForeArm  174.198 48.6438 168.781
RightHand  -2.82375 1.92217 -43.0532
LeftUpLeg  -25.0523 45.1968 12.5795
LeftLeg  23.9542 -9.3257 -4.16384
LeftFoot  9.80706 2.45541 -13.4257
LeftToes  1.24762e-006 1.46925e-008 1.29056e-009
313
root  -7.74038 36.7687 6.65114 -172.945 33.7826 178.457
RightUpLeg  -0.185676 -16.9831 -23.6651
RightLeg  26.0801 6.11461 3.02539
RightFoot  -15.1953 0.760728 25.3602
RightToes  -1.46215e-006 3.27826e-006 1.63871e-007
Spine  6.03089 -7.65192 -11.8092
Spine1  7.69299 -14.9854 23.2218
HEad  -28.9947 44.1197 -36.8636
LeftShoulder1  1.66008 -4.64586 -13.3863
LeftArm  40.742 -56.9898 -89.2369
LeftForeArm  56.5401 -75.4064 -122.334
LeftHand  -0.0157682 5.47956 6.34373
RightShoulder  1.7263 2.71929 21.4914
RightArm  -22.2017 -14.3447 10.5088
RightForeArm  176.94 49.9083 168.481
RightHand  -3.46217 2.93965 -46.0528
LeftUpLeg  -33.3581 38.0832 8.94681
LeftLeg  30.1386 -10.4782 -6.15692
LeftFoot  6.34291 1.60951 -10.6022
LeftToes  1.24762e-006 1.46925e-008 1.29056e-009
314
root  -8.33003 36.3159 5.95427 -172.92 22.5502 178.033
RightUpLeg  9.9996 -11.4629 -24.5651
RightLeg  17.997 8.71485 2.89205
RightFoot  -17.0815 1.17235 25.3202
RightToes  -1.46215e-006 3.27826e-006 1.63871e-007
Spine  5.06403 -5.79039 -11.5378
Spine1  5.17666 -12.7179 24.4647
HEad  -18.3745 32.8731 -27.4359
LeftShoulder1  1.50432 -4.43824 -11.8103
LeftArm  43.5585 -66.3902 -90.5926
LeftForeArm  50.8899 -76.2617 -116.062
LeftHand  -0.0735049 3.92179 4.27083
RightShoulder  1.91923 3.12372 22.7598
RightArm  -27.2858 -10.5288 16.2158
RightForeArm  173.183 50.9146 167.814
RightHand  -2.64574 0.638397 -48.366
LeftUpLeg  -38.9924 27.9869 6.06218
LeftLeg  35.1442 -10.6193 -7.56824
LeftFoot  4.19971 1.29706 -9.67805
LeftToes  1.24762e-006 1.46925e-008 1.29056e-009
315
root  -8.80713 35.8222 5.34088 -172.24 11.645 176.849
RightUpLeg  19.9121 -10.031 -24.2687
RightLeg  8.25572 7.33051 1.40339
RightFoot  -16.977 1.19797 26.2829
RightToes  -1.46215e-006 3.27826e-006 1.63871e-007
Spine  3.77777 -3.2821 -9.3822
Spine1  1.56227 -8.715 23.1106
HEad  -10.5887 18.7808 -21.4027
LeftShoulder1  1.41024 -4.26481 -10.9472
LeftArm  25.1436 -77.4146 -68.7316
LeftForeArm  41.2769 -77.3308 -103.844
LeftHand  -0.0413324 3.96857 1.89765
RightShoulder  2.16028 3.68217 23.9434
RightArm  -30.8704 -1.97195 22.9883
RightForeArm  172.372 52.7341 166.989
RightHand  -2.58118 0.52549 -48.0643
LeftUpLeg  -43.87 17.9774 3.08292
LeftLeg  38.9811 -10.1703 -8.33533
LeftFoot  2.96892 0.924585 -7.49592
LeftToes  1.24762e-006 1.46925e-008 1.29056e-009
